[Header]
FileType HTR
DataType HTRS
FileVersion 1
NumSegments 22
NumFrames 4
DataFrameRate 24
EulerRotationOrder ZYX
CalibrationUnits mm
RotationUnits Degrees
GlobalAxisofGravity Y
BoneLengthAxis Y
ScaleFactor 1.0
[SegmentNames&Hierarchy]
reference	GLOBAL
Hips	reference
Spine	Hips
Spine1	Spine
Neck	Spine1
Head	Neck
LeftShoulder	Spine1
LeftArm	LeftShoulder
LeftForeArm	LeftArm
LeftHand	LeftForeArm
RightShoulder	Spine1
RightArm	RightShoulder
RightForeArm	RightArm
RightHand	RightForeArm
LeftUpLeg	Hips
LeftLeg	LeftUpLeg
LeftFoot	LeftLeg
LeftToeBase	LeftFoot
RightUpLeg	Hips
RightLeg	RightUpLeg
RightFoot	RightLeg
RightToeBase	RightFoot
[BasePosition]
reference	0	0	0	0	0	0	1
Hips	0	0	0	0	0	0	1
Spine	0	0	0	0	-0	90	1
Spine1	0	0	0	0	0	0	1
Neck	0	0	0	-7.352327771	-7.352327771	90	1
Head	0	0	0	0	-0	90	1
LeftShoulder	0	0	0	0	0	0	1
LeftArm	0	0	0	0	0	0	1
LeftForeArm	0	0	0	0	0	0	1
LeftHand	0	0	0	0	0	0	1
RightShoulder	0	0	0	0	-0	180	1
RightArm	0	0	0	0	-0	180	1
RightForeArm	0	0	0	0	-0	180	1
RightHand	0	0	0	0	-0	180	1
LeftUpLeg	0	0	0	0	-0	-90	1
LeftLeg	0	0	0	0	-0	-90	1
LeftFoot	0	0	0	66.57146043	-66.57146043	-90	1
LeftToeBase	0	0	0	0	-90	0	1
RightUpLeg	0	0	0	0	-0	-90	1
RightLeg	0	0	0	0	-0	-90	1
RightFoot	0	0	0	66.57146043	-66.57146043	-90	1
RightToeBase	0	0	0	0	-90	0	1
[reference]
77	0	0	0	0	-0	0	1.0
78	0	0	0	0	-0	0	1.0
79	0	0	0	0	-0	0	1.0
80	0	0	0	0	-0	0	1.0
[Hips]
77	-2.010080338	8.508114815	10.6371727	174.7140808	-173.2916107	-179.4938049	1.0
78	-2.137980461	8.511470795	11.08799362	173.1817627	-172.7926483	-180.279007	1.0
79	-2.242936134	8.543740273	11.49001026	174.0765381	-171.9541016	-182.4950867	1.0
80	-2.371597528	8.62037468	11.88624859	173.1199951	-169.878418	-184.2672882	1.0
[Spine]
77	0	0.7457100153	0	-3.73540163	-9.316049576	-91.92832947	1.0
78	0	0.7457100153	0	-4.000739574	-8.550028801	-91.7515564	1.0
79	0	0.7457100153	0	-6.056889534	-7.217308044	-87.14438629	1.0
80	0	0.7457100153	0	-7.105473042	-2.593641758	-78.73200989	1.0
[Spine1]
77	0	2.140589952	0	11.28995228	0.03623079881	-0.8789646029	1.0
78	0	2.140589952	0	12.33696747	-0.01331320684	-0.08568678796	1.0
79	0	2.140589952	0	12.6203146	-0.6003364921	5.174575329	1.0
80	0	2.140589952	0	15.2887249	1.683135509	-14.09384346	1.0
[Neck]
77	0	2.32246995	0	-12.21543694	9.582491875	-83.69291687	1.0
78	0	2.32246995	0	-12.76824856	9.993131638	-84.58605957	1.0
79	0	2.32246995	0	-14.46506977	11.21528244	-86.90571594	1.0
80	0	2.32246995	0	-15.09257412	7.979708672	-85.31645203	1.0
[Head]
77	0	1.409579992	0.1818799973	-1.893559933	2.389970064	-93.02738953	1.0
78	0	1.409579992	0.1818799973	3.226604462	0.6229748726	-91.82185364	1.0
79	0	1.409579992	0.1818799973	7.885099888	-1.122714043	-87.9970932	1.0
80	0	1.409579992	0.1818799973	9.422912598	-1.761829734	-83.74039459	1.0
[LeftShoulder]
77	0.3668199778	1.946700096	-0.02662999928	-20.36915398	-12.00784302	-1.822602034	1.0
78	0.3668199778	1.946700096	-0.02662999928	-3.306497335	-13.16713047	-10.40973473	1.0
79	0.3668199778	1.946700096	-0.02662999928	-4.938732624	-10.3590765	-13.37196732	1.0
80	0.3668199778	1.946700096	-0.02662999928	-0.2570999265	-19.5519886	-1.818628907	1.0
[LeftArm]
77	1.140689969	0	0	-7.00755024	13.77357388	-27.51572609	1.0
78	1.140689969	0	0	-9.84679985	1.420474648	-23.88090897	1.0
79	1.140689969	0	0	-9.811813354	1.563433647	-23.91858482	1.0
80	1.140689969	0	0	-9.811813354	1.563433647	-23.91858482	1.0
[LeftForeArm]
77	2.749800205	0	0	109.0698242	-17.81289291	-64.05581665	1.0
78	2.749800205	0	0	109.0698242	-17.81289291	-64.05581665	1.0
79	2.749800205	0	0	109.0698242	-17.81289291	-64.05581665	1.0
80	2.749800205	0	0	109.0698242	-17.81289291	-64.05581665	1.0
[LeftHand]
77	2.295179844	0	0	4.954334259	-33.09126282	-32.07188034	1.0
78	2.295179844	0	0	4.954334259	-33.09126282	-32.07188034	1.0
79	2.295179844	0	0	4.954334259	-33.09126282	-32.07188034	1.0
80	2.295179844	0	0	4.954334259	-33.09126282	-32.07188034	1.0
[RightShoulder]
77	-0.3601199985	1.946700096	-0.02662999928	-1.638065696	0.05993279442	178.0991516	1.0
78	-0.3601199985	1.946700096	-0.02662999928	-1.937865496	0.5587147474	177.7427216	1.0
79	-0.3601199985	1.946700096	-0.02662999928	-3.331382751	-0.6675904989	177.7034302	1.0
80	-0.3601199985	1.946700096	-0.02662999928	-6.890421391	-7.714582443	181.5939331	1.0
[RightArm]
77	-1.140689969	0	0	-22.35538483	-20.28453064	-115.3693314	1.0
78	-1.140689969	0	0	-22.57120132	-19.93113708	-114.1966629	1.0
79	-1.140689969	0	0	-26.54024124	-18.14896774	-113.1408539	1.0
80	-1.140689969	0	0	11.41820145	-14.30969524	-105.6150665	1.0
[RightForeArm]
77	-2.749800205	0	0	28.34941292	-5.585661411	200.0414886	1.0
78	-2.749800205	0	0	27.56447029	-6.197212219	198.7167053	1.0
79	-2.749800205	0	0	30.42008972	-7.372530937	199.5592194	1.0
80	-2.749800205	0	0	15.21364117	-0.6264032125	191.1068726	1.0
[RightHand]
77	-2.295179844	0	0	29.34029388	-0.04215944558	172.4786682	1.0
78	-2.295179844	0	0	28.65883827	-0.9859285355	171.7672119	1.0
79	-2.295179844	0	0	31.74080086	-1.603770018	171.0892029	1.0
80	-2.295179844	0	0	15.41516685	-0.6023189425	174.6925201	1.0
[LeftUpLeg]
77	0.9094099998	0	0	22.42318916	3.660987139	85.68647003	1.0
78	0.9094099998	0	0	24.86738586	3.852286577	87.29141998	1.0
79	0.9094099998	0	0	22.51874542	3.127340794	89.59394836	1.0
80	0.9094099998	0	0	21.10690308	2.551053047	92.47502136	1.0
[LeftLeg]
77	0	-4.498080254	0	14.34404087	-9.874838829	86.64758301	1.0
78	0	-4.498080254	0	18.51885796	-8.905057907	85.83992767	1.0
79	0	-4.498080254	0	25.85446548	3.731616735	89.13968658	1.0
80	0	-4.498080254	0	33.67717743	4.858234406	85.83752441	1.0
[LeftFoot]
77	0	-3.729400158	0	-80.7534256	101.0692062	-32.7543335	1.0
78	0	-3.729400158	0	-69.26895905	100.9210968	-24.60470963	1.0
79	0	-3.729400158	0	-122.193924	100.5891953	-85.48200989	1.0
80	0	-3.729400158	0	-85.58429718	101.8506012	-56.58056641	1.0
[LeftToeBase]
77	0	-0.5911099911	1.364109993	0	0	0	1.0
78	0	-0.5911099911	1.364109993	0	0	0	1.0
79	0	-0.5911099911	1.364109993	0	0	0	1.0
80	0	-0.5911099911	1.364109993	0	0	0	1.0
[RightUpLeg]
77	-0.9094099998	0	0	-11.49525356	1.658676624	89.78199768	1.0
78	-0.9094099998	0	0	-6.356936455	1.105892658	91.89682007	1.0
79	-0.9094099998	0	0	-5.490659237	0.9997154474	93.79141998	1.0
80	-0.9094099998	0	0	-1.463639617	0.2056742013	95.4648819	1.0
[RightLeg]
77	0	-4.498080254	0	0.1642368287	-27.93591881	88.25556946	1.0
78	0	-4.498080254	0	-1.502099037	-23.99640274	89.4821167	1.0
79	0	-4.498080254	0	1.959870815	-21.71723938	89.69548035	1.0
80	0	-4.498080254	0	2.842404604	-4.502024174	92.00790405	1.0
[RightFoot]
77	0	-3.729400158	0	-56.29290771	133.415451	-25.47348022	1.0
78	0	-3.729400158	0	-100.2268829	107.3692322	-72.08343506	1.0
79	0	-3.729400158	0	-105.7999573	108.0907593	-72.02719879	1.0
80	0	-3.729400158	0	-137.6074677	115.641304	-106.1731033	1.0
[RightToeBase]
77	0	-0.5911099911	1.364109993	0	0	0	1.0
78	0	-0.5911099911	1.364109993	0	0	0	1.0
79	0	-0.5911099911	1.364109993	0	0	0	1.0
80	0	-0.5911099911	1.364109993	0	0	0	1.0
[EndOfFile]
